<svg xmlns="http://www.w3.org/2000/svg" width="155" height="40"><g fill="none"><path fill="#8BBAC6" d="M3.13 17.8C1.02 21.2.2 23.85.03 26.06c-.7 8.78 9.13 12.9 13.91 13.77.26.05 1.47.24 2.3-.23.43-.24.17-.62.08-.83-1-2.29-5.07-6.18-8.48-8.43-2.36-1.56-3.3-2.55-4.14-3.8-2.89-4.32-.57-8.74-.57-8.74m9.98-8.6c-4.67.54-8.42 5.35-9.9 8.45.1-.22 1.51-2.56 4.85-4.55.25-.15 2.02-1.33 7.28-3.3.04-.02.95-.36.88-.53-.1-.23-2.4-.15-3.11-.07"/><path fill="#E54326" d="M20.61 9.12c.22.39.45.77.65 1.17.67 1.25 1.2 2.55 1.54 3.93.27 1.1.39 2.22.31 3.36a9.3 9.3 0 01-1.74 4.83 12.94 12.94 0 01-3.31 3.19 20.59 20.59 0 01-7.09 3.08c-.4.09-.8.16-1.2.18a3.45 3.45 0 01-1.32-.16c-.43-.17-.5-.43-.28-.83a13.41 13.41 0 012.55-3.4 35.61 35.61 0 015.53-4.55c.76-.52 1.51-1.06 2.17-1.7A8.46 8.46 0 0021 13.6c.23-1.3.14-2.6-.24-3.88l-.18-.6.04-.01m-9.41-7.14c-.27-.14-.52-.24-.75-.38-.2-.13-.39-.28-.55-.45a.76.76 0 01-.22-.63c.02-.24.13-.39.36-.46.26-.08.52-.03.77.02.93.21 1.77.62 2.56 1.12.88.55 1.67 1.2 2.42 1.92a29.8 29.8 0 014.24 5.16l.02.07c-.1-.1-.2-.16-.27-.24a14.92 14.92 0 00-3.55-2.37c-1.02-.5-2.08-.9-3.14-1.3-.58-.22-1.17-.43-1.72-.74a1.83 1.83 0 01-.75-.76c-.15-.32-.07-.59.24-.78l.34-.18m5.43 25.08l.12-.08c1.03-.53 2.1-.97 3.22-1.25.42-.1.84-.19 1.27-.16.5.03.65.27.41.71a2.4 2.4 0 01-1.62 1.21 4.6 4.6 0 01-2.03-.02c-.43-.09-.84-.23-1.26-.35l-.1-.06"/><path fill="#000" d="M42.27 24.13c-.33.42-.79.74-1.37.96-.58.22-1.25.33-1.99.33-.76 0-1.44-.17-2.03-.51a3.43 3.43 0 01-1.36-1.47 5.08 5.08 0 01-.5-2.23v-.7c0-1.36.33-2.42 1-3.19a3.45 3.45 0 012.75-1.14c1.02 0 1.82.24 2.42.74.6.5.95 1.21 1.07 2.14h-1.55c-.17-1.08-.8-1.62-1.9-1.62-.72 0-1.25.25-1.62.75a3.8 3.8 0 00-.58 2.22v.69c0 .97.21 1.72.63 2.26.41.53.99.8 1.73.8.8 0 1.38-.18 1.72-.54v-1.75h-1.87v-1.19h3.45v3.45zm1.72 1.09h1.52v-9.5h-1.52zm4.35-3.25c0 .69.15 1.22.43 1.61.3.4.7.59 1.2.59.52 0 .92-.2 1.2-.6.29-.4.43-.97.43-1.73 0-.68-.15-1.21-.44-1.6-.3-.4-.7-.6-1.2-.6s-.89.2-1.18.58c-.3.4-.44.97-.44 1.75zm-1.52-.13c0-.66.13-1.25.4-1.77.26-.53.63-.93 1.1-1.21a3.15 3.15 0 011.64-.43c.92 0 1.66.3 2.23.87.57.59.87 1.36.92 2.32v.35c0 .66-.12 1.25-.38 1.77-.26.51-.62.92-1.1 1.2-.48.28-1.03.43-1.66.43-.95 0-1.72-.32-2.29-.95a3.58 3.58 0 01-.86-2.5v-.08zm12.02-.03c0-.72-.13-1.27-.4-1.63a1.3 1.3 0 00-1.12-.54c-.66 0-1.12.28-1.39.85v2.75c.27.59.74.88 1.4.88.48 0 .85-.18 1.1-.53.26-.35.4-.88.4-1.59v-.19zm1.52.13c0 1.04-.24 1.86-.7 2.48a2.3 2.3 0 01-1.94.92c-.8 0-1.42-.28-1.86-.85l-.07.73H54.4v-9.5h1.52v3.45a2.21 2.21 0 011.77-.76c.83 0 1.48.3 1.95.9.47.61.7 1.46.7 2.54v.1zm3.68 2.22c.3 0 .59-.07.85-.21.27-.15.47-.34.6-.59V22.1h-.82c-.56 0-.99.1-1.27.3a.94.94 0 00-.43.82c0 .28.1.51.3.68.19.18.45.26.77.26zm1.67 1.08a2.3 2.3 0 01-.17-.62c-.49.5-1.08.75-1.78.75a2.4 2.4 0 01-1.66-.58 1.83 1.83 0 01-.65-1.42c0-.71.27-1.26.8-1.64.54-.38 1.3-.57 2.3-.57h.94v-.44c0-.35-.1-.62-.3-.83-.2-.2-.49-.31-.89-.31-.35 0-.63.08-.85.25a.79.79 0 00-.33.65H61.6c0-.36.12-.7.37-1.02.24-.32.58-.57 1-.75.42-.19.9-.28 1.42-.28.79 0 1.42.2 1.9.6.46.39.7.94.72 1.65v3.02c0 .6.08 1.08.26 1.44v.1H65.7zm2.97-.02h1.52v-9.5h-1.52zm11.74-3.76h-3.67v3.8h-1.58v-8.99h5.79v1.26h-4.21v2.67h3.67zm1.79 3.77h1.52v-6.68h-1.52v6.68zm-.1-8.43a.8.8 0 01.23-.57c.15-.16.36-.23.64-.23.27 0 .48.07.64.23a.8.8 0 01.22.57c0 .23-.07.42-.22.57-.16.16-.37.23-.64.23-.28 0-.49-.07-.64-.23a.78.78 0 01-.22-.57zm7.04 6.63a.68.68 0 00-.33-.62 3.6 3.6 0 00-1.11-.37c-.52-.1-.95-.24-1.3-.4-.76-.37-1.14-.9-1.14-1.58 0-.58.25-1.06.74-1.45.5-.38 1.12-.58 1.88-.58.8 0 1.46.2 1.96.6.5.4.75.9.75 1.54h-1.52c0-.3-.11-.53-.33-.72-.22-.2-.5-.3-.86-.3-.34 0-.6.08-.82.24a.72.72 0 00-.32.6c0 .24.1.42.3.55.2.12.6.25 1.19.38.6.13 1.06.29 1.4.47.34.17.6.39.76.64.16.25.25.56.25.92 0 .6-.26 1.08-.76 1.46-.5.37-1.17.56-1.98.56-.56 0-1.05-.1-1.49-.3-.43-.2-.77-.47-1.01-.82a1.91 1.91 0 01-.36-1.11h1.47c.02.35.16.62.4.81.26.2.6.3 1 .3s.7-.08.92-.23a.7.7 0 00.31-.6m4.37-4.16a2.4 2.4 0 011.88-.85c1.44 0 2.18.81 2.2 2.44v4.37h-1.52V20.9c0-.46-.1-.79-.3-.98-.21-.19-.5-.28-.9-.28-.6 0-1.06.26-1.36.8v4.78H92v-9.5h1.52v3.54zm5.7 5.97h1.52v-6.68h-1.52v6.68zm-.1-8.43a.8.8 0 01.23-.57c.15-.16.36-.23.64-.23.27 0 .48.07.63.23a.8.8 0 01.23.57c0 .23-.08.42-.23.57-.15.16-.36.23-.63.23-.28 0-.5-.07-.64-.23a.78.78 0 01-.22-.57zm4.64 1.76l.05.77c.5-.6 1.15-.9 1.97-.9 1.4 0 2.13.8 2.15 2.4v4.41h-1.52v-4.33c0-.42-.1-.74-.28-.94-.18-.2-.49-.3-.91-.3-.61 0-1.07.27-1.37.81v4.76h-1.52v-6.68h1.43zm7.04 3.42c0 .67.13 1.2.41 1.59.28.38.66.57 1.15.57.62 0 1.07-.26 1.37-.78v-2.94c-.29-.5-.74-.76-1.35-.76-.5 0-.9.2-1.17.59-.28.4-.42.97-.42 1.73m-1.51-.13c0-1.04.25-1.87.74-2.49a2.4 2.4 0 011.97-.93c.77 0 1.38.27 1.82.8l.07-.67h1.37v6.48c0 .88-.28 1.57-.83 2.07-.55.51-1.3.76-2.24.76-.5 0-.98-.1-1.45-.3-.48-.2-.84-.47-1.08-.8l.72-.9c.47.54 1.04.82 1.73.82.5 0 .9-.14 1.2-.4.28-.28.43-.67.43-1.2v-.45c-.44.49-1.02.73-1.75.73-.8 0-1.44-.31-1.95-.94a4 4 0 01-.75-2.58m18.01 1.19l1.41-6.77h1.57l-2.11 8.99h-1.51l-1.73-6.57-1.78 6.57h-1.52l-2.1-8.99h1.57l1.42 6.76 1.74-6.76h1.32zm6.07 1.12c.3 0 .58-.07.85-.21.26-.15.46-.34.6-.59V22.1h-.82c-.57 0-1 .1-1.27.3a.94.94 0 00-.43.82c0 .28.1.51.3.68.18.18.44.26.77.26zm1.67 1.08a2.3 2.3 0 01-.17-.62c-.49.5-1.08.75-1.78.75a2.4 2.4 0 01-1.67-.58 1.83 1.83 0 01-.64-1.42c0-.71.27-1.26.8-1.64.54-.38 1.3-.57 2.3-.57h.94v-.44c0-.35-.1-.62-.3-.83-.2-.2-.5-.31-.9-.31-.34 0-.62.08-.84.25a.8.8 0 00-.34.65h-1.52c0-.36.13-.7.37-1.02.25-.32.58-.57 1-.75.43-.19.9-.28 1.42-.28.8 0 1.43.2 1.9.6.47.39.71.94.73 1.65v3.02c0 .6.08 1.08.25 1.44v.1h-1.55zm4.87-8.25v1.62h1.2v1.12h-1.2v3.73c0 .25.05.44.15.55.1.11.28.17.55.17.17 0 .35-.02.53-.06v1.16c-.35.1-.68.14-1 .14-1.17 0-1.75-.63-1.75-1.9v-3.8h-1.12v-1.1h1.12v-1.63h1.52zm5.1 7.18c.37 0 .69-.11.94-.33.25-.22.38-.49.4-.8h1.43c-.02.4-.15.8-.4 1.16-.24.36-.57.64-1 .85-.42.21-.87.32-1.36.32-.95 0-1.7-.3-2.25-.91a3.57 3.57 0 01-.83-2.51v-.16c0-1.01.27-1.83.82-2.44.55-.61 1.3-.92 2.25-.92.81 0 1.47.24 1.97.7.51.46.78 1.07.8 1.82h-1.43c-.02-.38-.15-.7-.4-.94a1.29 1.29 0 00-.95-.37c-.49 0-.87.17-1.14.53-.26.35-.4.88-.4 1.6v.24c0 .73.13 1.27.4 1.62.26.36.64.54 1.14.54m5.41-4.91a2.4 2.4 0 011.88-.85c1.44 0 2.18.81 2.2 2.44v4.37h-1.52V20.9c0-.46-.1-.79-.3-.98-.21-.19-.5-.28-.9-.28-.6 0-1.06.26-1.36.8v4.78h-1.52v-9.5h1.52v3.54z"/></g></svg>