<svg xmlns="http://www.w3.org/2000/svg" viewBox="0 0 412 143"><g fill="none" fill-rule="evenodd"><g transform="translate(-1 31)"><path fill="#163F89" fill-opacity=".5" d="M128.86 49.581l-2.605 11.478 68.661 19.965h79.943C282.953 73.314 287 59.053 287 38.24h-65.906l-9.682 11.341H128.86z"/><path fill="#163F89" fill-opacity=".3" d="M141.54 65.474l54.26 15.55h-68.314V66.325h14.055v-.851zM133.6 68.8h-2.4v10.4h2.4V68.8zm7.167 6.4c-2.645.543-3.967 1.871-3.967 3.983h3.967zm0-6.4H136.8c0 2.112 1.322 3.44 3.967 3.983V68.8z"/><path fill="#163F89" fill-opacity=".1" stroke="#C2CAD9" stroke-linecap="round" stroke-linejoin="round" stroke-width=".64" d="M168.357 81.024c-3.936-20.523-5.903-42.07-5.903-64.644C146.012 52.902 121.46 74.45 88.8 81.024h0"/><path stroke="#163F89" stroke-linecap="round" stroke-linejoin="round" stroke-width=".8" d="M.5 81.5h412" opacity=".3"/><path fill="#163F89" fill-opacity=".1" stroke="#C2CAD9" stroke-linecap="round" stroke-linejoin="round" stroke-width=".64" d="M185.224 49.581c-3.514-15.653-6.283-30.72-8.307-45.2-2.81 12.15-10.853 27.218-24.13 45.2h0"/><path stroke="#FFF" stroke-linecap="round" stroke-linejoin="round" stroke-width=".8" d="M127.411 57.58h157.934"/><path fill="#163F89" fill-opacity=".3" d="M189.774 43.58h12.053v6h-12.053zM224.8 23.93h35.564l-1.371-1.365-34.193-2.671"/><path fill="#163F89" d="M223.529 14.658l-3.88-12.601h-5.464l8.117 36.183h1.902z" opacity=".3"/><ellipse cx="223.12" cy="44.78" stroke="#FFF" stroke-linecap="round" stroke-linejoin="round" stroke-width=".8" rx="2.009" ry="2"/><path stroke="#C2CAD9" stroke-linecap="round" stroke-linejoin="round" stroke-width=".64" d="M182.542 24.38l-20.088-8m20.088 8l11.008 19.317"/><ellipse cx="236.78" cy="44.78" stroke="#FFF" stroke-linecap="round" stroke-linejoin="round" stroke-width=".8" rx="2.009" ry="2"/><ellipse cx="250.44" cy="44.78" stroke="#FFF" stroke-linecap="round" stroke-linejoin="round" stroke-width=".8" rx="2.009" ry="2"/><ellipse cx="264.1" cy="44.78" stroke="#FFF" stroke-linecap="round" stroke-linejoin="round" stroke-width=".8" rx="2.009" ry="2"/><path fill="#163F89" d="M214.185 2.057V0l8.119 1.705v.352z" opacity=".3"/><path stroke="#C2CAD9" stroke-linecap="round" stroke-linejoin="round" stroke-width=".64" d="M214.185 2.057l-12.76 10.972-4.084 30.668m16.844-41.64l-36.866-1.028m36.866 1.028l-51.731 10.791m29.73 3.532l2.732 27.317M162.454 16.38v-3.532m14.463-8.468l.402-2.837"/><path fill="#163F89" fill-opacity=".3" d="M225.858 23.93l1.929 6.7h28.603v5.386L287 38.24h-63.471l1.271-14.31z"/><path d="M229.702 30.63v-6.7m6.4 6.7v-6.7m6.4 6.7v-6.7m6.4 6.7v-6.7m6.4 6.7v-6.7" stroke="#3D5687" stroke-linejoin="round" stroke-width=".8" opacity=".3"/><path stroke="#8695B4" stroke-linejoin="round" stroke-width="1.6" d="M231.093 14.629h-10.47m3.581 23.611V14.629"/><ellipse cx="176.917" cy="4.38" fill="#E5E8EF" rx="1.607" ry="1.6"/><ellipse cx="162.454" cy="16.38" fill="#E5E8EF" rx="1.607" ry="1.6"/><ellipse cx="192.184" cy="16.38" fill="#E5E8EF" rx="1.607" ry="1.6"/><ellipse cx="201.784" cy="14.78" fill="#E5E8EF" rx="1.607" ry="1.6"/><ellipse cx="182.542" cy="24.38" fill="#E5E8EF" rx="1.607" ry="1.6"/><path stroke="#8695B4" stroke-linejoin="round" stroke-width="1.6" d="M219.657 39.98L177.319 1.029m43.792 37.445l-19.686-25.445m16.742 28.875l-55.781-29.056"/></g><path fill="#FFF" d="M171 13h70v119h-70z" opacity=".6"/><path fill="#FD5480" fill-rule="nonzero" d="M209.245 47.261c0-.84-.503-1.261-1.51-1.261h-2.47c-1.054 0-1.578.421-1.578 1.261v35.21c0 .84.527 1.261 1.578 1.261h2.403c1.05 0 1.577-.421 1.577-1.26v-35.21zM210 89.752c0-1.213-.596-1.82-1.785-1.82h-3.433c-1.186 0-1.782.607-1.782 1.82v3.428c0 1.213.596 1.82 1.785 1.82h3.43c1.19 0 1.785-.607 1.785-1.82v-3.43.002z"/><path fill="#163F89" stroke="#163F89" stroke-width=".9" d="M234 1a9 9 0 019 9v123a9 9 0 01-9 9h-56a9 9 0 01-9-9V10a9 9 0 019-9h56zm5.022 14.37h-65.248v112.26h65.248V15.37z"/></g></svg>